<svg id="ae5014aa-e43f-482c-bba9-84ad2748bb1d" data-name="e24fc498-a95c-4485-ab25-38704a3a543b" xmlns="http://www.w3.org/2000/svg" xmlns:xlink="http://www.w3.org/1999/xlink" viewBox="0 0 3019.93 837.13"><defs><style>.fd72a473-3579-46ab-8b88-a3a10c5d4188{fill:none;}.b1720db8-bd9c-4fbb-a34c-055612fff44d{clip-path:url(#a6780068-2a79-4d21-b27e-71ec59a1def8);}.b1087a47-996d-4181-9eaa-70990313930a{fill:#fff;}</style><clipPath id="a6780068-2a79-4d21-b27e-71ec59a1def8" transform="translate(0 0.08)"><rect class="fd72a473-3579-46ab-8b88-a3a10c5d4188" width="3019.93" height="837.05"/></clipPath></defs><g class="b1720db8-bd9c-4fbb-a34c-055612fff44d"><path class="b1087a47-996d-4181-9eaa-70990313930a" d="M195.8,241.77C202.38,243.7,486,342.86,486,342.86s4.62-22,16.16-26.91c12.22-5.2,37-11.87,63.87,6.64a66.2,66.2,0,0,1,32.45-5.39c18.22,1.68,31.76,4.78,39.2,23.09,0,0,15.29-5.36,26.51-1.43s25.94,13.27,26.5,22.49c0,0,12.66-2.5,20.51,2s15.41,9.24,22.14,28.87,18.92,45.56,18.92,45.56,41.43,12.28,59.46,17.32c26.1,7.31,78.15,15.09,109.4,31.26,0-.5,2,0,2-.5,0-3.36-2.17-4.67-4.18-6.17-7.58-5.68-15.3-11.17-22.94-16.76-8.17-6-7.59-15.73,1.21-20.75,2.11-1.19,4.55-2,6.3-3.59,7.27-6.56,13.49-3.63,20.33,1.1,8.52,5.9,17.62,11,27.76,17.2-7.51-25.42-14.6-49.15-21.47-73-1.1-3.78-3.72-5.16-6.88-6.35-8.64-3.26-17.3-6.49-25.9-9.86-8.12-3.19-9.57-11.28-3.23-17.44,2.22-2.15,4.55-4.2,6.62-6.48,4.15-4.57,8.58-5.67,14.7-3.5,11,3.92,22.42,6.93,35,10.72-13.92-22.91-27.1-44.49-40.14-66.15-1.36-2.26-3.11-2.68-5.4-2.95-10.26-1.2-20.49-2.68-30.76-3.76-2.68-.28-4.5-.87-5.7-3.47-2.78-6-6-11.83,0-18a24.45,24.45,0,0,0,4.39-7.34c1.7-3.84,4.36-4.78,8.43-4.6,12.78.58,25.59-.25,40.2,1.27-20-18.89-38.53-36.42-57.06-54-2.29-2.18-5-1.49-7.51-1.13-8.48,1.2-16.92,2.63-25.39,4-10.08,1.57-16-5.13-13-14.79a64.61,64.61,0,0,0,2.46-8.86c.81-5.48,4.28-7.25,9.22-8.29,11.74-2.46,23.39-5.36,35.8-8.26a23.4,23.4,0,0,0-2.68-2.18c-21.26-11.6-42.58-23.1-63.77-34.83-3.33-1.85-6-.67-8.71.51-8.7,3.72-17.33,7.6-26,11.34-1.52.65-2.82,1.72-4.92.85-7.08-3-11.34-8.9-11.34-16.52a55.26,55.26,0,0,0-.06-7.28c-.63-4.81,1.21-7.48,5.65-9.73,11.06-5.63,21.78-11.92,32.91-18.09-.93-.88-1.19-1.33-1.54-1.42-22.87-5.47-45.77-10.75-68.58-16.47-5-1.26-8.64-.52-12.46,2.92-5.88,5.3-12.26,10-18.36,15.11-7.29,6-15.17,3.54-17.58-5.66-.78-3-1-6.18-2.27-8.92-2.38-5.19.21-8,3.78-11.22,8.7-7.78,17.09-15.9,25.6-23.88a1.6,1.6,0,0,0-1.88-1.94c-4.7.16-9.44-.66-14.1.51-19.18.07-38.35.15-57.51,1.15-3.42.17-5.72,1.06-7.72,3.84-5.54,7.68-11.27,15.22-17,22.73-1.1,1.44-1.66,3.46-4.38,3.37-8.68-.28-16.76-1.17-19.6-11.44a15.62,15.62,0,0,0-2.54-4.61c-2-2.81-2-5.17,0-8.29,7.06-11,13.73-22.31,21.18-34.53-25.51,7.6-49.87,14.9-74.27,22.07-2.5.73-3.37,2.25-4.21,4.44-3.46,9-7.11,18-10.73,27-2.26,5.58-12.2,7.73-17,4-9.55-7.49-14.7-15.41-8.51-28.33A84.53,84.53,0,0,0,484.79,3c-1.17.07-1.68,0-2,.15l-62.7,38c-2.85,1.71-3.48,4.3-3.78,7.24-.93,9.18-1.95,18.36-2.83,27.55-.22,2.33-.62,4.43-2.94,5.48-6.94,3.16-13.83,7.54-21,.34a17.21,17.21,0,0,0-5.65-3.38c-4.27-1.73-5-4.77-4.48-9,1.4-12.17,1.07-24.37.84-37.37a27,27,0,0,0-2.69,2.06c-16.71,17.55-33.37,35.17-50.15,52.65-1.86,1.94-1.69,3.81-1.38,6,1.44,10.22,2.81,20.45,4.27,30.67.29,2,.81,3.87-1.26,5.33-4.48,3.16-8.29,8.1-14.92,4-2.15-1.31-5-1.66-7.61-2-5.48-.72-7.27-4.13-8.33-9.13-2.5-11.69-5.56-23.27-8.33-34.61-1.83-.3-2,.72-2.42,1.44-11.63,21.23-23.19,42.5-34.92,63.68-1.64,3-.91,5.31.28,8,3.83,8.65,7.45,17.4,11.39,26,1.45,3.16,1,5.44-.72,8.51-3.92,6.86-9.34,8.18-16.89,8.25-8.71.07-14.08-1.84-17.73-10.5-4.1-9.73-10.14-18.65-16-29.13-6.15,25.74-11.91,49.88-17.71,74a8.61,8.61,0,0,0-.09,4.16c.3.12.58.22.83.3" transform="translate(0 0.08)"/><path class="b1087a47-996d-4181-9eaa-70990313930a" d="M754.28,547.31l-20.11-6.12s-10.88,21-17,30.82-9.79,11.73-18.12,37.4-20.48,89.83-20.48,91.28c0,1-10.54,49.75-17,79.43,1.2-.7.41-1.41,1.62-2.11,5.61-3.22,7.65-7.14,8.11-13,.76-9.64,1.79-19.27,2.82-28.89.57-5.34,8.09-10.24,12.46-7.87,12.23,6.62,25.73,12.13,20.79,30.91-1.68,6.41-.43,13.61-.35,20.45,0,1.54-1,3.51,1.16,4.74,16.57-17.45,33-35,49.74-52.18,3.21-3.3,3.86-6.5,3.13-10.7-1.77-10.16-3.56-20.34-4.86-30.57-1-7.83,3.6-11.35,11.09-9.13,4.43,1.31,8.78,3.32,13.29,3.77,5.82.59,7.53,3.92,8.61,8.81,2.67,12,5.6,23.9,8.78,37.3,12.87-23.72,24.87-46,37.06-68.11,1.33-2.41.63-4-.28-6.1-4.48-10-8.93-20.12-13.26-30.23-.65-1.52-2.5-3.26-1.18-4.85,2.58-3.13,4.24-9.19,8.1-8.73,8.49,1,17.53-2.22,25.48,2.79,1,.63,1.45,2.17,2.07,3.34,3.55,6.58,6.85,13.32,10.7,19.73,2.49,4.14,3.51,9.35,8.08,12.66q3.91-16.5,7.74-32.74c-41.07-6.78-104.31-66.11-128.18-72.09" transform="translate(0 0.08)"/><path class="b1087a47-996d-4181-9eaa-70990313930a" d="M492.15,598.57s9.4-33.61-7.52-56.06c0,0-31-52.29-44.92-78.13-9.85-20.25-4.34-29.88-4.34-29.88s-157.62-51.19-240.21-72.76c.6,1.48,0,0-.19,1.92-.52,5.3-2,9.71-7.62,11.82a33.54,33.54,0,0,0-8.69,4.7c-4,3.12-7.28,2.28-11.25-.31-10.27-6.69-20.82-12.94-32-19.82a28.58,28.58,0,0,0,.46,3.45c6.62,22.55,13.42,45,19.78,67.66,1.3,4.64,3.73,6.89,8,8.41,8.7,3.11,17.26,6.59,25.85,10s9.62,10.17,2.91,16.48c-3,2.86-6.36,5.53-9,8.73-3,3.65-6,3.9-10.32,2.46-11.79-4-23.77-7.36-37.18-11.44L176.73,533c1.25,2.07,3.34,1.67,5.3,1.89,10.92,1.22,21.83,2.56,32.75,3.78,2,.23,3.82.41,4.83,2.64,2.39,5.25,5.23,10.22.12,15.74-2.33,2.52-3.81,5.91-5.34,9.07-2.18,4.49-5.3,6.14-10.47,6-12.38-.43-24.78-.14-37.53-.14q27.71,26.31,55.43,52.68c1.71,1.63,3.45,1.46,5.47,1.14q16.59-2.59,33.2-5.07c6.41-1,10.8,3.81,9.17,10-1.06,4-2.73,8-3.3,12.08-1.05,7.53-5.41,10.27-12.54,11.54-11.07,2-21.95,5.1-34.07,8,23.35,12.74,45.55,24.82,67.71,37,2.25,1.24,4.05.83,6.2-.14,9.22-4.16,18.54-8.12,27.77-12.26,10.28-4.61,16.68-.57,16.51,10.5a129.74,129.74,0,0,0,0,13.23c.41,4.73-1.68,7.11-5.71,9.17C321,725.57,310,731.72,297.7,738.36c25.92,6.17,50.29,11.9,74.61,17.84,2.78.68,4.5,0,6.51-1.69,8.67-7.13,17.48-14.1,26.19-21.19,5.22-4.26,9.32-3,11,3.56,1.24,4.67,1.95,9.51,3.64,14,2.1,5.58.55,9.16-3.85,13-8.88,7.71-17.19,16.06-26,24.37,1.15.57,1.51.9,1.86.91q22.17.12,44.31-.44c22.82-55.05,41.16-106.55,56.1-190.15" transform="translate(0 0.08)"/><path class="b1087a47-996d-4181-9eaa-70990313930a" d="M719.28,529.11c-29.48-10.19-54.29-16.64-84.32-27,11.08-6,10.88-5.4,21.56-1.57,45.27,16.23,86.22,27.8,131.3,44.53,29.57,11,50.89,44.82,81.65,50.49,6.28,1.16,12.91.91,19.34.62,7.45-.34,22.62-32,26.33-38.6,1.51-2.7,6.65-12.49,7.91-15.32,5.24-17.37,8.28-31.46-10.34-40.25-17.68-8.33-42.34-11.94-61-16.94-35.23-9.42-70-18.83-104.6-30.22C738.48,452,723,444,712.59,451.67,714,446.84,715.47,442,717,437c4.08.86,17.09,5.37,22.16,6.44l10,3.28c2.1.71,12.35,3.1,14,3.73,49,15.54,92.5,21.7,141.55,37.22,2.21.7,4.36,1.6,6.54,2.43,22.41,8.47,28.17,27.94,25.49,51.87-1.18,10.51-15.58,33.83-28.06,56-6.7,11.92-22.17,13.48-35.59,9.54-42.09-12.41-74.8-53.34-116.84-66.17-9.13-2.78-18.13-6-28.49-9.46l-8.48-2.77" transform="translate(0 0.08)"/><path class="b1087a47-996d-4181-9eaa-70990313930a" d="M766.79,475c4-.62,8.34-2.66,11.82-1.64,33.15,9.77,66.14,20.05,98.76,30.06L866,535.27c-2.06-7-4.31-12.6-5.29-18.45-.75-4.43-2.48-6.51-6.7-8-28-9.9-55.93-20.11-83.86-30.24-1.11-.4-2.17-.95-3.25-1.43l-.09-2.17" transform="translate(0 0.08)"/><path class="b1087a47-996d-4181-9eaa-70990313930a" d="M40,331.9c1.17-27.95,6.06-54.85,20.84-79.08,3.4-5.57,8.1-7.29,14.57-5.63,12.4,3.19,57.59,33.8,64.08,44.46-5.6-3-10.66-6.34-16.21-8.48-15.59-6-54.91-20.18-61.58-5S49.16,308.76,43,324.08c-1,2.59-2,5.22-3,7.83" transform="translate(0 0.08)"/><path class="b1087a47-996d-4181-9eaa-70990313930a" d="M691.19,499.05c4.3.56,8.84.42,12.86,1.8,25.88,8.86,47,14.32,72.55,23.32l9.31-17.73,2.07.68v30.52c-33.86-13.16-63.27-22.68-97.33-35.93l.54-2.66" transform="translate(0 0.08)"/><path class="b1087a47-996d-4181-9eaa-70990313930a" d="M140.17,203.53c-6.65-6.06-9.75-13.59-1.72-22.71l-14.54-11.65,32.43-7.88c-5.26,13.72-10.71,28-16.17,42.24" transform="translate(0 0.08)"/><path class="b1087a47-996d-4181-9eaa-70990313930a" d="M108.07,153.55c-1.63,10.42-2.95,20.92-5,31.25-2.7,13.67-5.84,27.23-9.11,40.75-.38,1.56-2.83,2.6-4.32,3.88-1.13-1.86-2.36-3.69-3.35-5.6a3,3,0,0,1,.2-2q9.57-34.44,19.17-68.87l2.39.55" transform="translate(0 0.08)"/><path class="b1087a47-996d-4181-9eaa-70990313930a" d="M459.68,402.25V372.93l22.86,7.55-21.17,22.83-1.69-1.06" transform="translate(0 0.08)"/><path class="b1087a47-996d-4181-9eaa-70990313930a" d="M448.6,371.3c-.33,6.72-.22,13.19-1.07,19.53-1.08,8-1,14.77,9.87,14.69-4.1,7.78-9,3.62-13.73,2.56-4.91-1.1-4.76-4.44-4.68-8.18.13-5.94.48-11.92,0-17.82-.57-6.9,2.79-9.74,9.61-10.78" transform="translate(0 0.08)"/><path class="b1087a47-996d-4181-9eaa-70990313930a" d="M21.75,378.35c6.69,23,12.89,46.18,30.63,64.75-19.1-8.91-33.48-39.46-30.63-64.75" transform="translate(0 0.08)"/><path class="b1087a47-996d-4181-9eaa-70990313930a" d="M53.63,383c1.88-14.09,3.64-28.19,5.77-42.23A7.27,7.27,0,0,1,63.22,336c6-2.3,12.17-4,18.51-5.94,0,.87.12,1.53,0,1.59C67.44,337.7,63,350.2,60.16,364c-1.36,6.55-3.67,12.9-5.55,19.34l-1-.37" transform="translate(0 0.08)"/><path class="b1087a47-996d-4181-9eaa-70990313930a" d="M422,351.36l27.92,9.71L428.3,371.85c-2.16-7-4-13.05-6.31-20.49" transform="translate(0 0.08)"/><path class="b1087a47-996d-4181-9eaa-70990313930a" d="M411.26,361.61,365.73,342l7.18-8,22.62,7.58,15.73,20" transform="translate(0 0.08)"/><path class="b1087a47-996d-4181-9eaa-70990313930a" d="M83.09,129.82c-2.61-6.06-.84-42.91,14.39-45.33,11.35-1.8,56.87-3.95,91.26,23,20.36,15.92,3,44-5.75,47.37-5.91,2.29-10,3.46-12.72,5.27s-20.83,32.61-16.3,60.69S186.58,258,206.5,263.39,334.25,310,364.15,318.21s119,42.12,121.88,50.66a158.25,158.25,0,0,0,.93-16s-249.13-87.58-293.14-104c-52-19.43-23.55-78.8-13.58-80.62s12.68-5.43,17.2-10.87,10.87-20.83,10.87-20.83c6.43-20.37,1-27.58-5.35-33.08C159.07,65.27,91.51,68.76,82.45,82.35S70.3,116.56,71.61,126.29c.63,4.73,11,14.29,11.54,19,.29,2.38-.38,15-3.76,25.67-2.25,9.47-2.36,9.69-9.28,28.87-5.57,12.83-16.79,16.61-29.55,21.44-20,7.55-36.13,76.2-39.77,111.61-2.28,22.17.69,56.21,5.09,74.53,7.78,32.4,49,69,73,89.25,22.75,22.49,48.52,38,50.8,39.5-30.52-54.67-43.28-89.7-46.53-122.69-.53-17.92,5.48-42.9,14.46-57.08C104.2,346,121.09,345,133.3,344.73c66.11-1.35,306.58,84.63,306.58,84.63l5.76-9.58c-57.14-16.47-146-45.68-175.26-53.15-36.41-9.29-66.24-18.93-110.9-27.91-53.6-10.78-68.22,10.86-68.22,10.86-10.34,14.1-19.18,40.57-16.63,62.72,3.16,27.4,11.9,63.1,33.89,96.72-35.29-27.2-69.6-55.84-84.58-82.27C13.29,408,8.06,385.39,7.67,365.82,6.29,296.08,29.32,235.11,51.11,226.61c20.47-8,26.05-13.07,30.73-30.74,2.7-10.8,11.72-40,12.3-50.18.3-5.2-8.41-9.75-11-15.87" transform="translate(0 0.08)"/><path class="b1087a47-996d-4181-9eaa-70990313930a" d="M109.41,91.25s37.17,26.16,77.09,25.24c0,0-2.3-5.48-19.28-12.61S131,87.58,109.41,91.25" transform="translate(0 0.08)"/><path class="b1087a47-996d-4181-9eaa-70990313930a" d="M189.21,277.79c9.35-29.55-60.24-9.31-26.75,55.11,0,0-12-39,26.75-55.11" transform="translate(0 0.08)"/><path class="b1087a47-996d-4181-9eaa-70990313930a" d="M210.18,277.59s-34.11,15.46-34.11,26.19c0,3.63,82.09,20.57,257,80.78,0,0-194.27-102.63-222.89-107" transform="translate(0 0.08)"/><path class="b1087a47-996d-4181-9eaa-70990313930a" d="M174,148.7c-28.47-5.06-57-9.61-80.87-26.7,12.24,19.36,50.39,31.88,80.87,26.7" transform="translate(0 0.08)"/><path class="b1087a47-996d-4181-9eaa-70990313930a" d="M415.9,404s9.19-7.75,12.93-9.72-34.43-11.16-201.74-49.82c0,0,117.27,33.87,188.81,59.54" transform="translate(0 0.08)"/><path class="b1087a47-996d-4181-9eaa-70990313930a" d="M725.07,540.13c-9.72,18.62-18.6,29.9-26.63,49-14.71,35.07-37.68,158.21-49.91,202.37-2.15,5.45-6.31,10.11-10.53,14.57,11.21-46.33,39.39-185.35,57.35-228.24L662,579.37l-.06-2.12c28.69-8.51,46-17.45,54.9-40.1Z" transform="translate(0 0.08)"/><path class="b1087a47-996d-4181-9eaa-70990313930a" d="M493.2,499.3c9.88,7.93,18.82,15.26,28,22.31,1.46,1.12,3.87,1.36,5.85,1.38,13.17.11,26.35.06,40,.71-6.36,1.89-12.64,4.25-19.12,5.57-6.74,1.37-13.69,1.75-22,2.73a88.82,88.82,0,0,0,43.63,13.76c14.87.78,29.82.17,45.4.17-12.61,7.77-26.21,11-40.31,12.7-2.31.28-4.65.24-7,.44-28.47,2.43-51.88-5.73-67.7-31.19-13.09-21.07-26.84-41.74-40.26-62.6-7.1-11-5.93-21.54,2.33-31.42a231.46,231.46,0,0,1,17.86-19.45C474.21,431,465,446.76,472.76,465c7.6,17.8,20.12,28.56,40.34,29.8l-19.9,4.47" transform="translate(0 0.08)"/><path class="b1087a47-996d-4181-9eaa-70990313930a" d="M607.89,607.39c-14.59.67-57.17-8-72.89-7.26l9.93,5.21L510.62,690.9l-1.12-.38q3.6-20.13,7.19-40.27l-1.12-.53q-8.09,15.87-16.22,31.78l20.33-96.23c18.73,3.56,67.47,16.83,88.24,20.77v1.35" transform="translate(0 0.08)"/><path class="b1087a47-996d-4181-9eaa-70990313930a" d="M621.59,695.13q15.06-47.22,30.11-94.43l2,.63c-4.3,33.32-15.8,64.32-32.1,93.8" transform="translate(0 0.08)"/><path class="b1087a47-996d-4181-9eaa-70990313930a" d="M650.23,660.05l24.36-64.33,3.83,1.55c-2.76,23.77-13.22,44.45-28.19,62.78" transform="translate(0 0.08)"/><path class="b1087a47-996d-4181-9eaa-70990313930a" d="M601.59,516.8l-12.3-25.57c11.58.8,16.54,11.06,12.3,25.57" transform="translate(0 0.08)"/><path class="b1087a47-996d-4181-9eaa-70990313930a" d="M630.64,510.67l24.75,14c-9.81,7-23.69-3.11-24.75-14" transform="translate(0 0.08)"/><path class="b1087a47-996d-4181-9eaa-70990313930a" d="M741.66,435.55c-6.36-16.85-10.39-24.28-15.17-41.6-4.89-17.67-18.69-30.8-39.73-26.09-15.88-23.56-24.6-26.56-53.13-18.06a26.21,26.21,0,0,1-2.35-4.71c-3-11.07-11.37-14.95-21.66-17.16-15.28-3.27-29.71-.78-43.63,5.07-15.08-13.84-32.66-17.94-52.06-12.42-10.74,3.05-17.78,9.82-19.28,20.95-1.23,9.19-1,18.57-1.87,27.81-.54,5.58-.27,12.48-3.38,16.34A274.53,274.53,0,0,1,461,415.45c-18.11,16.63-23.29,31.39-10.93,53.53,15.27,27.34,31.1,54.35,46.42,81.66A39.15,39.15,0,0,1,501.55,565c2.72,25.43-18.08,105.73-24.79,130.55-3.45,12.75-23.36,76.08-38,111.06,35.73-49.76,71.35-201.68,69.51-241.65,8.36,3.88,80.31,27.07,130.56,24.6.15-.83-53.79-19.38-53.63-20.21-2.7-.6-11.82,4.57-14.5,3.89-20.26-5.15-29-10.6-49.25-16-2.57-.69-15.41-11-16.76-13.11-17.91-27.88-32.37-45.63-49.3-74.1-9.5-16-6.79-31.85,6.1-45.69,10.77-11.56,21.33-23.32,32.13-34.86,1.88-2,4.23-4.09,6.76-4.92,33.48-11,66.73-9.19,99.71,2.34,6.26,2.08,6.09,12.26,4.31,18.59-7.42,14.33-30.46,16-42.32,7.21.87-8.55,1.63-16.11,2.56-25.26l6.25-3.64c-15.92-2.15-18.51.15-23.3,21.35-1.28-5.73-2.11-9.49-3.12-14-4.89,8.43-3.52,16,1.09,23,10.62,16.1,26.2,11.75,41.32,9.73-12.87,8.19-26.59,13.28-41.55,7.24-15.21-6.13-29.87-13.65-44.53-20.46,2.75,10.13,9.78,18.58,18.26,27.1l-22.75-6.38c-.3.58-.6,1.17-.91,1.75l22.73,13.38c-10.93,8.2-23.94,7.17-38.33,5.73,18.21,12,39,9.64,52.66-5.55,4.3-4.78,8.59-5.68,14.16-4.63.25,15.76-6.73,23.5-30.3,33.49,12.32,3.2,21.88-.45,30-9,12.11,9.48,26.35,11.79,40.79,13.78a16.18,16.18,0,0,1,8.42,3.95c10,9.46,29.33,12.87,41.28,6.2,3.78-2.11,6.22-1.73,9.74.18a37.38,37.38,0,0,0,34.08,1.45c18.16-15.66,19.23-17.52,24.65-41.15a115.21,115.21,0,0,0,2.21-21.68l-2.1.05c-.67,5-4.43,13.31-5.83,19-4,18.32-6.53,22-19.41,36.3-9.11,10.13-30.58-1-31-12.78-.3-9.23,2.64-18.57,4.15-27.85l2.28.44c-3.34,28.4-2.79,30.5,9.76,35.41-6.82-13.17-3.34-25.9.42-38.64,2.64-8.93,6-17,16.9-18.47,1.36-.18,2.58-1.32,4.13-2.16l-18.06-7.26c1.29-2.7,2.24-4.67,2.91-6.05l22.89,3.58.45-2.26c-3.48-1.29-7.34-2-10.33-4-2.75-1.84-6.2-5-6.31-7.73s3.06-6.29,5.74-8c7-4.61,14.88-5.57,23.11-1.71l.83-2.87-14.94-7.68c6.75-6.06,13.06-5.57,18.66,2.13,6.9,9.47,6.76,19.55.2,32.09l11.59-10.31C728.68,415,730.8,420,736,435.2l6.58,1.47a2,2,0,0,1-.87-1.12M553,342.74c-4.06-3.47-7.7-8.34-12.5-10.2-4.55-1.76-10.32-.38-15.54.54,18.5,6.37,23.89,12.5,23.25,28.29-12.06-7.05-23.46-9.77-34.7-1.7L538,365.19c-.1,1.12-.21,2.25-.32,3.37L497,375.72c-.57-14.52-1.12-28.67,7.74-39.84,4.12-5.2,12.4-7.77,19.29-9.87,5-1.51,10.81-.67,16.2-.17C552.71,327,554.8,330,553,342.74M598.55,379c-7.15-.71-14.5-1.49-21.22-3.81-8.58-3-10.07-9.82-5-17.44A22.73,22.73,0,0,1,601.07,350c1.28.62,2.52,1.34,5.32,2.83-6.81-12.54-16.37-13.93-28.9-11.33,9.44-9.48,19.57-9.26,29.78-7.49,9.68,1.69,17.93,5.9,20,16.7.53,2.69-.34,5.86-1.27,8.56-.83,2.38-3.29,4.25-3.92,6.63-3.37,12.64-12.89,14.21-23.55,13.14M561,464.44c11.49-2.88,24-2.31,30.11-13.28,4-7.17,6.13-15.43,9.09-23.2l-2-.88-8.77,4.53-.78-.93,18.23-15.21,1.75.15c-2.53,10-4.28,20.2-7.77,29.81-6.43,17.71-19.78,23.94-39.89,19m114.76-85.19C659,408.05,644,438,638.28,471.4c-1.36,8-4.19,14.57-12.74,16.64-9.16,2.22-17.26.27-24.87-8.35l23.86,3.82L607.9,471.93l23.48,2.69,1.52-2.89a11.09,11.09,0,0,1-2.77-.84c-10.54-6.56-11.82-8.38-9.06-20.76,2.87-12.83,7-25.38,10.51-38.06,1.64-5.86,4.48-10.09,11.38-10.66,2.54-.21,4.94-2.27,7.4-3.49l-.54-1.5c-3.55-.15-7.13-.11-10.65-.52-5.56-.63-10-3-11.14-9.06-1.19-6.43.47-12,6.57-15.21,9.2-4.86,18.6-5.75,28.15-.17-2.74-12.13-9.79-15-26-10.84,5.27-10.08,20.63-12.91,30.29-5.37a58.51,58.51,0,0,1,7.63,7.71c4.44,5.1,5.54,8.68,1.1,16.29" transform="translate(0 0.08)"/><path class="b1087a47-996d-4181-9eaa-70990313930a" d="M516.8,733.74s-4.4,10.41-23,26.1-32.39,48.89-19.38,77.21c0,0-1.69-19.34,8-28.55,0,0,35.38,16.68,33.46,3.34,0,0-6.8-46.84,3.73-53.77s18.28-75,18.28-75-12.29,32.48-21.07,50.63" transform="translate(0 0.08)"/><path class="b1087a47-996d-4181-9eaa-70990313930a" d="M600.9,640.65s16.41,17.88-8.65,52.93-30.5,35-39.31,77c0,0-7.9-10.37,2-39.61s7.43-26.77,6.18-33.57-8.06-17.22-1.69-43.66c0,0,11.2-29.16,14.47-38.28,0,0-5.13,32.45-2.24,42a94.67,94.67,0,0,0,1,16.31s1.41,9.35,7,12c0,0,8.11-9.22,21.11-45.17" transform="translate(0 0.08)"/><path class="b1087a47-996d-4181-9eaa-70990313930a" d="M626.74,775.7l-6.15-12.21s8.93-17.14-3.66-44.62L637.66,707s-10,50.31-10.92,68.68" transform="translate(0 0.08)"/><path class="b1087a47-996d-4181-9eaa-70990313930a" d="M1413.45,240c0,99.3-80.62,179.92-179.92,179.92S1053.12,339.34,1053.12,240c0-99.79,81.11-180.41,180.41-180.41,54.08,0,102.25,24.09,135.68,61.45L1325,165.32a118.26,118.26,0,1,0,13.76,128.79h-83.57L1245.82,240Z" transform="translate(0 0.08)"/><path class="b1087a47-996d-4181-9eaa-70990313930a" d="M1880.45,240c0,99.3-80.62,179.92-179.92,179.92S1520.13,339.3,1520.13,240c0-99.79,81.11-180.41,180.4-180.41S1880.45,140.25,1880.45,240M1700.53,121.57A118.47,118.47,0,1,0,1819,240v0a118.54,118.54,0,0,0-118.48-118.47m0,89.47a29.06,29.06,0,0,0-29,29c0,15.73,13.27,28.51,29,28.51s29-12.78,29-28.51a29.06,29.06,0,0,0-29-29" transform="translate(0 0.08)"/><path class="b1087a47-996d-4181-9eaa-70990313930a" d="M2151.8,341.8l-29,78.16L1987.61,59.63h59l76.19,203.51v-.49Zm-19.17-105.2L2199,59.6h59l-96.35,256.11Z" transform="translate(0 0.08)"/><polygon class="b1087a47-996d-4181-9eaa-70990313930a" points="2635.02 120.67 2425.61 120.67 2425.61 254.38 2565.22 254.38 2553.42 315.33 2425.61 315.33 2425.61 359.08 2635.02 359.08 2635.02 420.04 2364.66 420.04 2364.66 359.08 2364.66 315.33 2364.66 254.38 2364.66 120.67 2364.66 90.19 2364.66 59.71 2635.02 59.71 2635.02 120.67"/><path class="b1087a47-996d-4181-9eaa-70990313930a" d="M2939.8,316.73,3015.5,420h-75.21l-67.84-92.42h-47.68l-12.29-60.46h73.74a73.25,73.25,0,0,0,0-146.49h-84.06V420h-60.47V59.63h144.53c73.73,0,133.71,60,133.71,134.2,0,54.57-32.94,101.76-80.13,122.9" transform="translate(0 0.08)"/><path class="b1087a47-996d-4181-9eaa-70990313930a" d="M1213.52,714.09a86.31,86.31,0,1,1-61-147.34,85.35,85.35,0,0,1,61,25.42l-21,21a56.6,56.6,0,1,0-40,96.5,57.21,57.21,0,0,0,40-16.47Zm-61.2-74.84a13.77,13.77,0,1,0-.74,27.53h.74a13.77,13.77,0,0,0,0-27.53" transform="translate(0 0.08)"/><path class="b1087a47-996d-4181-9eaa-70990313930a" d="M1409.82,653.13a86.19,86.19,0,0,1-86.15,86.15c-47.54,0-86.38-38.6-86.38-86.15a86.27,86.27,0,0,1,172.53-1.85c0,.61,0,1.23,0,1.85m-86.15-56.72a56.73,56.73,0,1,0,56.73,56.73h0a56.75,56.75,0,0,0-56.73-56.72m0,42.84a13.77,13.77,0,1,0,13.89,13.88,13.78,13.78,0,0,0-13.89-13.88" transform="translate(0 0.08)"/><path class="b1087a47-996d-4181-9eaa-70990313930a" d="M1527.5,703.74l-68-70.38V739.28h-26.12V566.75l94.14,97.68Zm34.37-137V739.28l-26.13-27.07V566.75Z" transform="translate(0 0.08)"/><path class="b1087a47-996d-4181-9eaa-70990313930a" d="M1729,681.61c0,24-22.36,57.67-71.79,57.67-45.42,0-67.78-28.25-71.31-51.55l28.48-5.41c.47,6.82,8.23,28.24,42.83,28.24,35.54,0,42.84-22.83,42.84-28.95,0-6.82-13.42-14.35-42.84-14.35-66.61,0-71.78-33-71.78-43.08,0-23.77,22.36-57.43,71.78-57.43,45.43,0,67.79,28.25,71.32,51.31L1700,623.71c-.47-6.82-8.24-28-42.84-28-35.3,0-42.83,22.83-42.83,28.48,0,5.89,11.29,14.36,42.83,14.36,22.6,0,40,3.77,52.25,11.06,12.48,7.53,19.54,18.83,19.54,32" transform="translate(0 0.08)"/><path class="b1087a47-996d-4181-9eaa-70990313930a" d="M1752.29,566.75H1925v29.19H1752.29Zm101,41.19V739.28H1824.1v-137Z" transform="translate(0 0.08)"/><path class="b1087a47-996d-4181-9eaa-70990313930a" d="M2043.44,689.85l36.24,49.43h-36L2011.19,695h-22.83l-5.88-29h35.3a35.07,35.07,0,0,0,0-70.14h-40.24V739.28h-29V566.75h69.2a64.28,64.28,0,0,1,25.66,123.1" transform="translate(0 0.08)"/><path class="b1087a47-996d-4181-9eaa-70990313930a" d="M2121.11,721.86c-9.88-9.89-15.53-23.77-15.53-39.07v-116h29v116c0,18.12,12.94,27.77,37.66,27.77s38.13-10.12,38.13-28.24V566.75h29V682.32c0,26.36-17.66,57-67.08,57-22.13,0-39.31-5.89-51.08-17.42" transform="translate(0 0.08)"/><path class="b1087a47-996d-4181-9eaa-70990313930a" d="M2410.15,714.09a86.31,86.31,0,1,1-61-147.34,85.37,85.37,0,0,1,61,25.42l-21,21a56.6,56.6,0,1,0-40,96.5,57.21,57.21,0,0,0,40-16.47ZM2349,639.25a13.77,13.77,0,1,0-.74,27.53h.74a13.77,13.77,0,0,0,0-27.53" transform="translate(0 0.08)"/><path class="b1087a47-996d-4181-9eaa-70990313930a" d="M2433.92,566.75h172.76v29.19H2433.92Zm101,41.19V739.28h-29.19v-137Z" transform="translate(0 0.08)"/><rect class="b1087a47-996d-4181-9eaa-70990313930a" x="2630.23" y="566.83" width="29.19" height="172.52"/><path class="b1087a47-996d-4181-9eaa-70990313930a" d="M2855.47,653.13a86.19,86.19,0,0,1-86.14,86.15c-47.55,0-86.38-38.6-86.38-86.15a86.26,86.26,0,1,1,172.52,0m-86.14-56.72a56.73,56.73,0,1,0,56.72,56.74v0a56.75,56.75,0,0,0-56.72-56.72m0,42.84a13.77,13.77,0,1,0,13.88,13.88,13.78,13.78,0,0,0-13.88-13.88" transform="translate(0 0.08)"/><path class="b1087a47-996d-4181-9eaa-70990313930a" d="M2973.16,703.74l-68-70.38V739.28H2879V566.75l94.15,97.68Zm34.36-137V739.28l-26.13-27.07V566.75Z" transform="translate(0 0.08)"/></g></svg>